<!-- icon666.com - MILLIONS vector ICONS FREE --><svg id="Layer_1" enable-background="new 0 0 512 512" viewBox="0 0 512 512" xmlns="http://www.w3.org/2000/svg"><g id="_x37__x2C__down_x2C__arrow_x2C__sign_x2C__direction"><g><g><path d="m422.2 89.8c-91.9-91.8-240.5-91.8-332.4 0-91.8 91.9-91.8 240.5 0 332.4 91.8 91.8 240.5 91.9 332.3 0 91.9-91.9 91.9-240.5.1-332.4zm-166.2 381.2c-118.6 0-215-96.4-215-215s96.4-215 215-215 215 96.4 215 215-96.4 215-215 215z" fill="#000000" style="fill: rgb(0, 41, 255);"></path><path d="m323.3 329.5-57.3 57.4v-285.9c0-5.5-4.5-10-10-10s-10 4.5-10 10v287.5c-14.4-14.3-36.7-37.2-57.1-58.8-3.8-4-10.1-4.2-14.1-.4s-4.2 10.1-.4 14.1c74.4 78.6 76.5 77.5 81.6 77.5 7.7 0 4.9-2.3 81.5-77.3 3.9-3.9 3.9-10.2 0-14.1s-10.3-3.9-14.2 0z" fill="#000000" style="fill: rgb(0, 41, 255);"></path></g></g></g></svg>